<svg xmlns:xlink="http://www.w3.org/1999/xlink" xmlns="http://www.w3.org/2000/svg" class="footer-icon" role="img" aria-label="Twitter" viewBox="0 0 24 24" width="24"  height="24" ><path fill="#F5F6F6" d="M12 24C18.6274 24 24 18.6274 24 12C24 5.37258 18.6274 0 12 0C5.37258 0 0 5.37258 0 12C0 18.6274 5.37258 24 12 24ZM19.0155 8.66628C19.6604 8.58419 20.2789 8.41514 20.8594 8.1601C20.4243 8.80894 19.8906 9.37276 19.2555 9.82421C19.2623 9.96004 19.2672 10.0968 19.2672 10.2385C19.2672 14.4736 16.0478 19.3594 10.1591 19.3594C8.34749 19.3594 6.66753 18.8366 5.25 17.921C5.5017 17.9532 5.7534 17.965 6.01583 17.965C7.51238 17.965 8.89479 17.451 9.98354 16.5979C8.58455 16.5676 7.408 15.6344 6.99337 14.3651C7.18751 14.4081 7.39434 14.4198 7.59921 14.4198C7.89384 14.4198 8.17773 14.3856 8.43821 14.3143C6.98362 14.0162 5.87437 12.7225 5.87437 11.1649V11.1297C6.30168 11.3652 6.80606 11.5147 7.32019 11.5245C6.46948 10.9548 5.89876 9.97079 5.89876 8.86073C5.89876 8.26955 6.06071 7.72038 6.3368 7.24059C7.91823 9.18613 10.2723 10.4633 12.9327 10.5932C12.8801 10.3607 12.8586 10.1164 12.8586 9.86232C12.8586 8.09659 14.2849 6.65625 16.0566 6.65625C16.9697 6.65625 17.8068 7.04418 18.3941 7.67055C19.1219 7.52495 19.8048 7.26405 20.4233 6.89468C20.1852 7.64612 19.6789 8.26955 19.0155 8.66628Z"></path></svg>