<svg xmlns:xlink="http://www.w3.org/1999/xlink" xmlns="http://www.w3.org/2000/svg" class="footer-icon" role="img" aria-label="YouTube" viewBox="0 0 24 24" width="24"  height="24" ><path fill="#F5F6F6" d="M12 24C18.6274 24 24 18.6274 24 12C24 5.37258 18.6274 0 12 0C5.37258 0 0 5.37258 0 12C0 18.6274 5.37258 24 12 24ZM17.4347 6.74808C18.3899 6.80197 18.8591 6.9437 19.2914 7.71424C19.7416 8.48378 19.9688 9.80927 19.9688 12.1438V12.1468V12.1518C19.9688 14.4754 19.7416 15.8109 19.2924 16.5724C18.8601 17.343 18.3909 17.4827 17.4357 17.5476C16.4804 17.6025 14.0808 17.6354 12.002 17.6354C9.91916 17.6354 7.51857 17.6025 6.56432 17.5466C5.61105 17.4817 5.14189 17.342 4.70561 16.5714C4.26035 15.8099 4.03125 14.4744 4.03125 12.1508V12.1488V12.1458V12.1428C4.03125 9.80927 4.26035 8.48378 4.70561 7.71424C5.14189 6.94271 5.61205 6.80197 6.56531 6.74708C7.51857 6.6832 9.91916 6.65625 12.002 6.65625C14.0808 6.65625 16.4804 6.6832 17.4347 6.74808ZM14.9883 12.1458L10.0078 9.15152V15.1402L14.9883 12.1458Z"></path></svg>