<svg xmlns:xlink="http://www.w3.org/1999/xlink" xmlns="http://www.w3.org/2000/svg" class="footer-icon" role="img" aria-label="Instagram" viewBox="0 0 24 24" width="24"  height="24" ><path fill="#F5F6F6" d="M12 24C18.6274 24 24 18.6274 24 12C24 5.37258 18.6274 0 12 0C5.37258 0 0 5.37258 0 12C0 18.6274 5.37258 24 12 24ZM18.713 7.36647C18.8873 7.81456 19.009 8.33167 19.0421 9.08385C19.0753 9.83884 19.0781 10.0794 19.0781 12.0014C19.0781 13.9234 19.0698 14.1639 19.0366 14.9189C19.0035 15.6711 18.8817 16.1855 18.7075 16.6363C18.3396 17.5876 17.5873 18.3397 16.6358 18.7076C16.1877 18.8818 15.6705 19.0034 14.9182 19.0366C14.163 19.0699 13.9224 19.0781 12.0001 19.0781C10.0777 19.0781 9.83698 19.0699 9.08196 19.0366C8.32953 19.0034 7.81512 18.8818 7.36425 18.7076C6.89403 18.5306 6.46531 18.2513 6.11124 17.8918C5.75167 17.5378 5.47237 17.1119 5.29258 16.6363C5.1183 16.1882 4.99653 15.6711 4.96336 14.9189C4.93019 14.1639 4.92188 13.9234 4.92188 12.0014C4.92188 10.0794 4.93019 9.83884 4.96617 9.08104C4.99934 8.32887 5.121 7.81456 5.29528 7.36377C5.47237 6.89365 5.75167 6.46501 6.11124 6.11101C6.46531 5.7487 6.89122 5.47215 7.36706 5.2924C7.81512 5.11826 8.33234 4.99652 9.08466 4.96336C9.83979 4.93019 10.0804 4.92188 12.0028 4.92188C13.9251 4.92188 14.1657 4.93019 14.9237 4.96617C15.676 4.99933 16.1905 5.12096 16.6413 5.29521C17.1115 5.47215 17.5402 5.7515 17.8943 6.11101C18.2567 6.46501 18.5333 6.89084 18.713 7.36647ZM8.36551 12.0014C8.36551 9.99364 9.99473 8.36485 12.0028 8.36485C14.0109 8.36485 15.64 9.99364 15.64 12.0014C15.64 14.0091 14.0109 15.6379 12.0028 15.6379C9.99473 15.6379 8.36551 14.0091 8.36551 12.0014ZM9.64336 12.0014C9.64336 13.304 10.7001 14.3603 12.0028 14.3603C13.3056 14.3603 14.3622 13.304 14.3622 12.0014C14.3622 10.6988 13.3056 9.64246 12.0028 9.64246C10.7001 9.64246 9.64336 10.6988 9.64336 12.0014ZM16.6331 8.22107C16.6331 8.6899 16.2529 9.07004 15.7839 9.07004C15.315 9.07004 14.9348 8.6899 14.9348 8.22107C14.9348 7.75213 15.315 7.3721 15.7839 7.3721C16.2529 7.3721 16.6331 7.75213 16.6331 8.22107Z"></path></svg>